# xmcd
# 
# Track frame offsets:
#     150
#     20237
#     45097
# 
# Disc length: 865
# 
# Revision: 1
# Processed by: cddbd v1.5.2PL0 Copyright (c) Steve Scherf et al.
# Submitted via: fre:ac v1.0.17
# 
DISCID=1a035f03
DTITLE=鈴木トオル - The End Of The World
DYEAR=1995
DGENRE=J-Pop
TTITLE0=The End Of The World
TTITLE1=抱いて･･･
TTITLE2=The End Of The World(オリジナル・カラオケ)
EXTD=YEAR: 1995
EXTT0=
EXTT1=
EXTT2=
PLAYORDER=
